<svg width="118" height="39" viewBox="0 0 118 39" fill="none" xmlns="http://www.w3.org/2000/svg">
<path d="M25.664 38H0.236V33.164L9.7 23.596C11.572 21.6893 13.0973 20.06 14.276 18.708C15.4893 17.3213 16.3733 16.0387 16.928 14.86C17.5173 13.6813 17.812 12.3987 17.812 11.012C17.812 9.31333 17.3267 8.048 16.356 7.216C15.3853 6.34933 14.1027 5.916 12.508 5.916C10.948 5.916 9.492 6.24533 8.14 6.904C6.788 7.528 5.384 8.42933 3.928 9.608L0.34 5.292C1.38 4.39067 2.48933 3.576 3.668 2.848C4.84667 2.08533 6.18133 1.47867 7.672 1.028C9.16267 0.577332 10.896 0.351998 12.872 0.351998C15.264 0.351998 17.3093 0.785331 19.008 1.652C20.7413 2.484 22.076 3.64533 23.012 5.136C23.948 6.62666 24.416 8.36 24.416 10.336C24.416 11.8613 24.1907 13.2827 23.74 14.6C23.2893 15.8827 22.6307 17.148 21.764 18.396C20.8973 19.644 19.84 20.9093 18.592 22.192C17.344 23.4747 15.94 24.8613 14.38 26.352L8.504 32.02V32.332H25.664V38ZM43.9298 14.652C46.2871 14.652 48.3671 15.0853 50.1698 15.952C51.9725 16.8187 53.3765 18.084 54.3818 19.748C55.4218 21.3773 55.9418 23.388 55.9418 25.78C55.9418 28.4147 55.3871 30.6853 54.2778 32.592C53.1685 34.4987 51.5391 35.972 49.3898 37.012C47.2405 38.0173 44.6058 38.52 41.4858 38.52C39.5445 38.52 37.7245 38.3467 36.0258 38C34.3271 37.6533 32.8538 37.1507 31.6058 36.492V30.668C32.8885 31.3613 34.4311 31.9333 36.2338 32.384C38.0365 32.8347 39.7351 33.06 41.3298 33.06C42.9938 33.06 44.4151 32.8347 45.5938 32.384C46.7725 31.8987 47.6738 31.1707 48.2978 30.2C48.9218 29.1947 49.2338 27.9293 49.2338 26.404C49.2338 24.324 48.5751 22.7467 47.2578 21.672C45.9405 20.5973 43.8951 20.06 41.1218 20.06C40.1511 20.06 39.0938 20.1467 37.9498 20.32C36.8405 20.4933 35.9218 20.6667 35.1938 20.84L32.3858 19.28L33.7898 0.871998H53.3418V6.592H39.5618L38.7818 15.172C39.3711 15.068 40.0645 14.964 40.8618 14.86C41.6938 14.7213 42.7165 14.652 43.9298 14.652ZM87.1556 19.384C87.1556 22.4 86.9303 25.0867 86.4796 27.444C86.029 29.8013 85.2836 31.812 84.2436 33.476C83.2383 35.1053 81.921 36.3533 80.2916 37.22C78.697 38.0867 76.7383 38.52 74.4156 38.52C71.5036 38.52 69.1116 37.7573 67.2396 36.232C65.3676 34.7067 63.981 32.5227 63.0796 29.68C62.1783 26.8027 61.7276 23.3707 61.7276 19.384C61.7276 15.3973 62.1436 11.9827 62.9756 9.14C63.8076 6.29733 65.1423 4.11333 66.9796 2.588C68.8516 1.06266 71.3303 0.299999 74.4156 0.299999C77.3276 0.299999 79.7196 1.06266 81.5916 2.588C83.4636 4.07867 84.8503 6.26267 85.7516 9.14C86.6876 11.9827 87.1556 15.3973 87.1556 19.384ZM68.3316 19.436C68.3316 22.452 68.5223 24.9827 68.9036 27.028C69.285 29.0387 69.909 30.564 70.7756 31.604C71.677 32.6093 72.8903 33.112 74.4156 33.112C75.941 33.112 77.137 32.6093 78.0036 31.604C78.905 30.5987 79.5463 29.0733 79.9276 27.028C80.3436 24.9827 80.5516 22.452 80.5516 19.436C80.5516 16.3853 80.3436 13.8547 79.9276 11.844C79.5463 9.79867 78.905 8.27333 78.0036 7.268C77.137 6.228 75.941 5.708 74.4156 5.708C72.8903 5.708 71.677 6.228 70.7756 7.268C69.909 8.27333 69.285 9.78133 68.9036 11.792C68.5223 13.8027 68.3316 16.3507 68.3316 19.436Z" fill="#080808"/>
<path d="M107.657 17.252H117.693V22.088H107.657V32.228H102.769V22.088H92.7854V17.252H102.769V7.008H107.657V17.252Z" fill="#58BD7D"/>
</svg>
