<svg width="60" height="61" viewBox="0 0 60 61" fill="none" xmlns="http://www.w3.org/2000/svg">
<rect y="0.666992" width="60" height="60" rx="30" fill="#080808"/>
<path d="M23.9578 39.643V36.811L31.2058 30.379C31.7498 29.899 32.1338 29.447 32.3578 29.023C32.5818 28.599 32.6938 28.203 32.6938 27.835C32.6938 27.307 32.5858 26.839 32.3698 26.431C32.1538 26.015 31.8498 25.691 31.4578 25.459C31.0658 25.219 30.6058 25.099 30.0778 25.099C29.5258 25.099 29.0378 25.227 28.6138 25.483C28.1978 25.731 27.8738 26.063 27.6418 26.479C27.4098 26.887 27.3018 27.331 27.3178 27.811H23.9578C23.9578 26.627 24.2178 25.603 24.7378 24.739C25.2578 23.875 25.9818 23.207 26.9098 22.735C27.8378 22.263 28.9178 22.027 30.1498 22.027C31.2778 22.027 32.2858 22.275 33.1738 22.771C34.0698 23.259 34.7738 23.943 35.2858 24.823C35.7978 25.703 36.0538 26.723 36.0538 27.883C36.0538 28.739 35.9338 29.451 35.6938 30.019C35.4538 30.579 35.0978 31.099 34.6258 31.579C34.1538 32.051 33.5738 32.587 32.8858 33.187L28.2058 37.291L27.9418 36.571H36.0538V39.643H23.9578Z" fill="white"/>
</svg>
