<svg width="60" height="61" viewBox="0 0 60 61" fill="none" xmlns="http://www.w3.org/2000/svg">
<rect y="0.666992" width="60" height="60" rx="30" fill="#080808"/>
<path d="M29.6302 39.979C28.7662 39.979 27.9422 39.807 27.1582 39.463C26.3742 39.111 25.6902 38.619 25.1062 37.987C24.5302 37.355 24.1182 36.611 23.8702 35.755L27.0382 34.915C27.2062 35.547 27.5342 36.039 28.0222 36.391C28.5182 36.735 29.0542 36.907 29.6302 36.907C30.1262 36.907 30.5782 36.787 30.9862 36.547C31.4022 36.307 31.7302 35.983 31.9702 35.575C32.2182 35.167 32.3422 34.715 32.3422 34.219C32.3422 33.475 32.0862 32.839 31.5742 32.311C31.0702 31.775 30.4222 31.507 29.6302 31.507C29.3902 31.507 29.1582 31.543 28.9342 31.615C28.7102 31.679 28.4942 31.771 28.2862 31.891L26.8222 29.323L32.3182 24.763L32.5582 25.459H24.5422V22.387H35.3422V25.459L31.0702 29.587L31.0462 28.675C32.0382 28.827 32.8742 29.175 33.5542 29.719C34.2422 30.255 34.7622 30.919 35.1142 31.711C35.4742 32.495 35.6542 33.331 35.6542 34.219C35.6542 35.307 35.3782 36.287 34.8262 37.159C34.2742 38.023 33.5422 38.711 32.6302 39.223C31.7182 39.727 30.7182 39.979 29.6302 39.979Z" fill="white"/>
</svg>
