<svg width="72" height="61" viewBox="0 0 72 61" fill="none" xmlns="http://www.w3.org/2000/svg">
<path d="M12.6316 22.772C13.4691 22.772 14.2723 23.1047 14.8645 23.6969C15.4568 24.2892 15.7895 25.0924 15.7895 25.9299C20.751 25.9226 25.5694 27.5918 29.4632 30.6667H36.3158C40.5253 30.6667 44.3053 32.4983 46.9074 35.4036H56.8421C59.8271 35.4028 62.7512 36.2481 65.2754 37.8416C67.7995 39.4351 69.8202 41.7115 71.1032 44.4067C63.6347 54.2625 51.5432 60.6668 37.8947 60.6668C29.0842 60.6668 21.6316 58.7625 15.6 55.431C15.3791 56.0406 14.9755 56.5673 14.4443 56.9392C13.913 57.311 13.28 57.51 12.6316 57.5089H3.15789C2.32037 57.5089 1.51715 57.1762 0.924926 56.5839C0.332706 55.9917 0 55.1885 0 54.351V25.9299C0 25.0924 0.332706 24.2892 0.924926 23.6969C1.51715 23.1047 2.32037 22.772 3.15789 22.772H12.6316ZM15.7926 32.2457L15.7895 48.1046L15.9316 48.2057C21.6 52.1846 28.9832 54.351 37.8947 54.351C47.3811 54.351 56.2074 50.7004 62.6368 44.4667L63.0568 44.0468L62.6779 43.731C61.1867 42.5631 59.3792 41.87 57.4895 41.7415L56.8421 41.7194H50.1758C50.4032 42.7362 50.5263 43.791 50.5263 44.8773V48.0352H22.1053V41.7194L43.5474 41.7162L43.44 41.4699C42.8348 40.2053 41.9039 39.1246 40.7429 38.3387C39.5819 37.5529 38.2326 37.0902 36.8337 36.9983L36.3158 36.9825H27.0632C25.5957 35.4817 23.843 34.2894 21.908 33.4759C19.973 32.6625 17.8948 32.2442 15.7958 32.2457H15.7926ZM9.47368 29.0878H6.31579V51.1931H9.47368V29.0878ZM53.6842 10.1404C56.1968 10.1404 58.6065 11.1386 60.3831 12.9152C62.1598 14.6919 63.1579 17.1015 63.1579 19.6141C63.1579 22.1267 62.1598 24.5364 60.3831 26.313C58.6065 28.0897 56.1968 29.0878 53.6842 29.0878C51.1716 29.0878 48.762 28.0897 46.9853 26.313C45.2086 24.5364 44.2105 22.1267 44.2105 19.6141C44.2105 17.1015 45.2086 14.6919 46.9853 12.9152C48.762 11.1386 51.1716 10.1404 53.6842 10.1404ZM53.6842 16.4562C52.8467 16.4562 52.0435 16.7889 51.4512 17.3811C50.859 17.9734 50.5263 18.7766 50.5263 19.6141C50.5263 20.4516 50.859 21.2549 51.4512 21.8471C52.0435 22.4393 52.8467 22.772 53.6842 22.772C54.5217 22.772 55.325 22.4393 55.9172 21.8471C56.5094 21.2549 56.8421 20.4516 56.8421 19.6141C56.8421 18.7766 56.5094 17.9734 55.9172 17.3811C55.325 16.7889 54.5217 16.4562 53.6842 16.4562ZM31.5789 0.666748C34.0915 0.666748 36.5012 1.66487 38.2779 3.44153C40.0545 5.21819 41.0526 7.62786 41.0526 10.1404C41.0526 12.653 40.0545 15.0627 38.2779 16.8393C36.5012 18.616 34.0915 19.6141 31.5789 19.6141C29.0664 19.6141 26.6567 18.616 24.88 16.8393C23.1034 15.0627 22.1053 12.653 22.1053 10.1404C22.1053 7.62786 23.1034 5.21819 24.88 3.44153C26.6567 1.66487 29.0664 0.666748 31.5789 0.666748ZM31.5789 6.98254C30.7414 6.98254 29.9382 7.31524 29.346 7.90746C28.7538 8.49968 28.4211 9.30291 28.4211 10.1404C28.4211 10.978 28.7538 11.7812 29.346 12.3734C29.9382 12.9656 30.7414 13.2983 31.5789 13.2983C32.4165 13.2983 33.2197 12.9656 33.8119 12.3734C34.4041 11.7812 34.7368 10.978 34.7368 10.1404C34.7368 9.30291 34.4041 8.49968 33.8119 7.90746C33.2197 7.31524 32.4165 6.98254 31.5789 6.98254Z" fill="#080808"/>
</svg>
