<svg width="93" height="56" viewBox="0 0 93 56" fill="none" xmlns="http://www.w3.org/2000/svg">
<path d="M13.0648 21.6801C13.0648 22.6953 12.8151 23.5815 12.3155 24.3388C11.816 25.0962 11.0909 25.6843 10.1402 26.1033C9.20565 26.5061 8.06159 26.7075 6.70806 26.7075C6.11187 26.7075 5.52373 26.6672 4.94364 26.5867C4.37967 26.5061 3.83182 26.3933 3.30007 26.2483C2.78444 26.0872 2.29298 25.8938 1.82569 25.6682V22.2602C2.64748 22.6147 3.49343 22.945 4.36356 23.2512C5.2498 23.5412 6.12798 23.6863 6.99811 23.6863C7.5943 23.6863 8.06965 23.6057 8.42414 23.4446C8.79475 23.2834 9.06062 23.0659 9.22176 22.792C9.39901 22.518 9.48763 22.2038 9.48763 21.8493C9.48763 21.4143 9.33455 21.0437 9.0284 20.7375C8.73836 20.4313 8.34358 20.1494 7.84406 19.8915C7.34454 19.6176 6.77252 19.3276 6.12798 19.0214C5.72514 18.8281 5.29008 18.6025 4.82279 18.3447C4.3555 18.0707 3.90433 17.7404 3.46926 17.3537C3.05031 16.9508 2.70388 16.4674 2.42995 15.9035C2.15602 15.3395 2.01906 14.6627 2.01906 13.8732C2.01906 12.8419 2.2527 11.9637 2.71999 11.2386C3.20339 10.4974 3.88016 9.93344 4.75028 9.54672C5.63652 9.16 6.67584 8.96663 7.86823 8.96663C8.77058 8.96663 9.62459 9.07137 10.4303 9.28085C11.2521 9.49032 12.1061 9.78842 12.9923 10.1751L11.808 13.0272C11.0184 12.705 10.3094 12.4552 9.68099 12.2779C9.05257 12.1007 8.40803 12.0121 7.74738 12.0121C7.2962 12.0121 6.90948 12.0846 6.58721 12.2296C6.26494 12.3746 6.01519 12.576 5.83794 12.8339C5.6768 13.0917 5.59624 13.3978 5.59624 13.7523C5.59624 14.1552 5.71709 14.5016 5.95879 14.7916C6.20049 15.0656 6.56304 15.3314 7.04645 15.5893C7.52985 15.8471 8.1341 16.1532 8.85921 16.5077C9.74545 16.9267 10.4947 17.3617 11.107 17.8129C11.7355 18.2641 12.2189 18.7958 12.5572 19.4081C12.8956 20.0204 13.0648 20.7778 13.0648 21.6801ZM21.5674 9.20834C23.0982 9.20834 24.3792 9.35336 25.4105 9.6434C26.4578 9.91733 27.2393 10.3766 27.755 11.0211C28.2867 11.6495 28.5526 12.5035 28.5526 13.5831C28.5526 14.2277 28.4479 14.8158 28.2384 15.3476C28.0289 15.8793 27.7227 16.3144 27.3199 16.6527C26.9332 16.9911 26.4578 17.2087 25.8939 17.3053V17.4262C26.474 17.539 26.9976 17.7404 27.4649 18.0304C27.9322 18.3205 28.3028 18.7394 28.5768 19.2873C28.8507 19.8351 28.9877 20.5602 28.9877 21.4626C28.9877 22.51 28.7298 23.4123 28.2142 24.1697C27.7147 24.9109 26.9896 25.4829 26.0389 25.8857C25.0882 26.2725 23.9603 26.4658 22.6551 26.4658H16.2016V9.20834H21.5674ZM21.9783 16.0485C23.0418 16.0485 23.775 15.8793 24.1778 15.5409C24.5967 15.2025 24.8062 14.7111 24.8062 14.0665C24.8062 13.4059 24.5645 12.9305 24.0811 12.6405C23.5977 12.3505 22.8323 12.2054 21.7849 12.2054H19.8513V16.0485H21.9783ZM19.8513 18.9489V23.4446H22.2442C23.3399 23.4446 24.1053 23.2351 24.5403 22.8161C24.9754 22.3811 25.1929 21.809 25.1929 21.1C25.1929 20.665 25.0963 20.2863 24.9029 19.9641C24.7256 19.6418 24.4114 19.392 23.9603 19.2148C23.5091 19.0375 22.8968 18.9489 22.1233 18.9489H19.8513ZM38.0726 26.4658H35.8973V11.1178H30.5073V9.20834H43.4384V11.1178H38.0726V26.4658ZM50.5893 13.2689C50.831 13.2689 51.0889 13.285 51.3628 13.3173C51.6528 13.3334 51.9026 13.3656 52.1121 13.4139L51.8462 15.3717C51.6367 15.3234 51.4031 15.2831 51.1453 15.2509C50.9036 15.2186 50.6699 15.2025 50.4443 15.2025C49.9448 15.2025 49.4695 15.3073 49.0183 15.5167C48.5671 15.7262 48.1643 16.0243 47.8098 16.411C47.4553 16.7816 47.1733 17.2328 46.9638 17.7646C46.7705 18.2963 46.6738 18.8925 46.6738 19.5532V26.4658H44.5468V13.5106H46.2871L46.5288 15.8793H46.6254C46.8994 15.3959 47.2297 14.9608 47.6164 14.5741C48.0031 14.1713 48.4463 13.8571 48.9458 13.6315C49.4453 13.3898 49.9931 13.2689 50.5893 13.2689ZM7.67487 46.2931C9.25399 46.2931 10.4222 46.6395 11.1795 47.3324C11.9369 48.0253 12.3155 49.1291 12.3155 50.6437V59.4658H10.7686L10.3578 57.6289H10.2611C9.89047 58.0962 9.50374 58.491 9.10091 58.8132C8.71419 59.1194 8.26301 59.345 7.74738 59.49C7.24786 59.635 6.63555 59.7075 5.91045 59.7075C5.137 59.7075 4.43607 59.5706 3.80765 59.2966C3.19534 59.0227 2.71193 58.6038 2.35744 58.0398C2.00294 57.4597 1.82569 56.7346 1.82569 55.8645C1.82569 54.5754 2.33327 53.5844 3.34841 52.8915C4.36356 52.1825 5.92656 51.7958 8.03742 51.7314L10.2369 51.6589V50.8854C10.2369 49.8058 10.0033 49.0565 9.53597 48.6376C9.06868 48.2186 8.40803 48.0092 7.55402 48.0092C6.87725 48.0092 6.23272 48.1139 5.62041 48.3234C5.0081 48.5167 4.43607 48.7423 3.90433 49.0001L3.25173 47.4049C3.8157 47.0988 4.48441 46.8409 5.25785 46.6315C6.0313 46.4059 6.83697 46.2931 7.67487 46.2931ZM8.30329 53.2058C6.69195 53.2702 5.57207 53.528 4.94364 53.9792C4.33133 54.4304 4.02518 55.0669 4.02518 55.8886C4.02518 56.6137 4.24271 57.1455 4.67777 57.4839C5.12895 57.8223 5.70097 57.9914 6.39385 57.9914C7.48956 57.9914 8.39997 57.6933 9.12508 57.0971C9.85018 56.4848 10.2127 55.5503 10.2127 54.2934V53.1332L8.30329 53.2058ZM20.9092 59.7075C19.2978 59.7075 18.0087 59.1516 17.0419 58.0398C16.0751 56.9118 15.5917 55.236 15.5917 53.0124C15.5917 50.7887 16.0751 49.1129 17.0419 47.985C18.0249 46.8409 19.322 46.2689 20.9333 46.2689C21.6101 46.2689 22.1982 46.3575 22.6977 46.5348C23.1973 46.6959 23.6323 46.9215 24.0029 47.2116C24.3735 47.5016 24.6878 47.8239 24.9456 48.1784H25.0906C25.0745 47.9689 25.0423 47.6627 24.9939 47.2599C24.9617 46.8409 24.9456 46.5106 24.9456 46.2689V41.0965H27.0725V59.4658H25.3565L25.0423 57.7256H24.9456C24.6878 58.0962 24.3735 58.4346 24.0029 58.7407C23.6323 59.0308 23.1892 59.2644 22.6736 59.4417C22.1741 59.6189 21.5859 59.7075 20.9092 59.7075ZM21.2475 57.9431C22.6172 57.9431 23.5759 57.5725 24.1238 56.8313C24.6878 56.0739 24.9697 54.9379 24.9697 53.4233V53.0366C24.9697 51.4252 24.7039 50.1925 24.1721 49.3385C23.6404 48.4684 22.6575 48.0333 21.2234 48.0333C20.0793 48.0333 19.2172 48.4926 18.6372 49.411C18.0732 50.3134 17.7912 51.53 17.7912 53.0607C17.7912 54.6076 18.0732 55.8081 18.6372 56.6621C19.2172 57.5161 20.0874 57.9431 21.2475 57.9431ZM36.1904 46.2689C37.3022 46.2689 38.2529 46.5106 39.0424 46.994C39.8481 47.4774 40.4604 48.1622 40.8794 49.0485C41.3144 49.9186 41.532 50.9418 41.532 52.1181V53.3991H32.6615C32.6937 54.8654 33.0643 55.9853 33.7733 56.7588C34.4984 57.5161 35.5055 57.8948 36.7946 57.8948C37.6164 57.8948 38.3415 57.8223 38.9699 57.6772C39.6145 57.5161 40.2751 57.2905 40.9519 57.0005V58.8616C40.2912 59.1516 39.6386 59.3611 38.9941 59.49C38.3496 59.635 37.5842 59.7075 36.6979 59.7075C35.4733 59.7075 34.3856 59.4578 33.435 58.9582C32.5004 58.4587 31.7672 57.7175 31.2355 56.7346C30.7198 55.7356 30.462 54.519 30.462 53.0849C30.462 51.6669 30.6957 50.4504 31.163 49.4352C31.6464 48.4201 32.3151 47.6386 33.1691 47.0907C34.0392 46.5428 35.0463 46.2689 36.1904 46.2689ZM36.1662 48.0092C35.151 48.0092 34.3454 48.3395 33.7492 49.0001C33.1691 49.6447 32.8226 50.547 32.7099 51.7072H39.3083C39.3083 50.966 39.1955 50.3214 38.9699 49.7736C38.7443 49.2257 38.3979 48.7987 37.9306 48.4926C37.4794 48.1703 36.8913 48.0092 36.1662 48.0092Z" fill="white"/>
<path d="M8.99397 53.833H6.68682V37.5548H0.970217V35.5296H14.6849V37.5548H8.99397V53.833ZM32.8003 53.833H22.5719V35.5296H32.8003V37.5548H24.8791V43.2714H32.3388V45.2709H24.8791V51.8078H32.8003V53.833ZM55.3248 53.833H52.6075L46.1219 45.0915L44.2505 46.7321V53.833H41.9434V35.5296H44.2505V44.5531C44.7632 43.9721 45.2845 43.391 45.8142 42.81C46.344 42.2289 46.8738 41.6478 47.4036 41.0668L52.3512 35.5296H55.0429L47.7881 43.5021L55.3248 53.833Z" fill="#58BD7D"/>
</svg>
