<svg width="71" height="29" viewBox="0 0 71 29" fill="none" xmlns="http://www.w3.org/2000/svg">
<g clip-path="url(#clip0_2053_1161)">
<path d="M9.45121 26.243H0.900115L0 27.8932H9.45121C12.4516 27.8932 16.0521 27.7432 18.9024 23.8427L17.8523 22.3425C15.1519 26.393 10.5013 26.243 9.45121 26.243Z" fill="#D8D8D8"/>
<path d="M18.9022 23.8428C19.3822 22.8827 19.2022 21.4425 19.0522 20.8424L18.3021 20.3923C18.5421 20.9924 18.1021 21.9425 17.8521 22.3426L18.9022 23.8428Z" fill="#7D7D7D"/>
<path d="M15.3022 19.9422C15.6023 19.3421 15.6023 18.9421 15.6023 18.592L17.1025 18.8921C17.3425 19.7322 17.1025 20.4923 16.8024 20.8423L15.3022 19.9422Z" fill="#7D7D7D"/>
<path d="M11.1016 23.0925H2.55051L1.65039 24.7428H11.1016C14.102 24.7428 16.2023 21.8924 16.8023 20.8423L15.3021 19.9421C14.222 22.1024 12.1517 23.0925 11.1016 23.0925Z" fill="#D8D8D8"/>
<path d="M13.6514 20.291C14.1315 19.6909 14.2515 18.8408 14.2515 18.4908C13.7014 18.3408 12.6313 18.1307 12.7513 18.4908C12.8713 18.8508 11.7012 19.841 11.1011 20.291H13.6514Z" fill="#7D7D7D"/>
<path d="M3.30029 21.7425L4.20041 20.0923H13.7867C13.1866 21.4125 11.8514 21.7425 11.2513 21.7425H3.30029Z" fill="#D8D8D8"/>
<path d="M9.00133 0.139648H20.1028L19.3527 1.78986H9.00133C4.68078 1.78986 2.70053 5.49033 2.25047 7.34057L1.65039 5.54034C2.4905 1.45982 6.75104 0.139648 9.00133 0.139648Z" fill="#58BD7D"/>
<path d="M17.7025 4.94038L18.4526 3.44019H8.70136C5.25091 3.5902 3.65071 7.04065 3.45068 8.54084C3.69071 9.14092 4.55082 9.39095 4.95088 9.44095C4.95088 6.56059 7.80124 4.94038 9.30143 4.94038H17.7025Z" fill="#58BD7D"/>
<path d="M16.6524 6.59058L15.7522 8.09077H9.75148C8.25129 8.09077 8.05126 9.19091 8.10127 9.74098H6.60107C6.60107 7.5807 8.25129 6.59058 9.30142 6.59058H16.6524Z" fill="#58BD7D"/>
<path d="M2.25002 10.9411C0.449748 8.54084 0.899824 7.19066 1.0498 6.89062C1.76991 10.011 4.4503 10.8911 5.70044 10.9411H16.2018C18.7521 10.9411 20.4023 14.8416 20.1023 15.7418C19.5022 14.0915 16.8519 12.4413 15.7517 12.4413H4.95035C4.05019 12.4413 3.00008 11.9412 2.25002 10.9411Z" fill="#58BD7D"/>
<path d="M1.79987 13.9415C-0.000401139 11.5412 0.299702 9.74096 0.449681 9.44092C1.16979 12.5613 4.00017 13.7415 5.25031 13.7915L15.9127 13.9415C18.463 13.9415 20.5522 17.692 19.9521 19.6422C18.6019 16.7919 16.7017 15.5917 15.6015 15.5917L4.66127 15.4417C3.76112 15.4417 2.54993 14.9415 1.79987 13.9415Z" fill="#58BD7D"/>
<path d="M1.80006 17.092C-0.150198 14.4919 0.299812 14.3917 0.449836 13.6416C1.19993 16.0419 4.00025 16.892 5.2504 16.942L15.9128 17.092C18.4631 17.092 19.6523 20.9925 19.2022 22.9428C18.3021 20.2424 16.5019 18.7423 15.6016 18.7423L4.66136 18.5922C3.75031 18.5922 2.87695 18.5278 1.80006 17.092Z" fill="#58BD7D"/>
<path d="M29.9476 11.3014C29.9476 11.8076 29.823 12.2494 29.574 12.627C29.3249 13.0046 28.9634 13.2979 28.4894 13.5067C28.0234 13.7076 27.453 13.808 26.7782 13.808C26.4809 13.808 26.1877 13.7879 25.8985 13.7478C25.6173 13.7076 25.3441 13.6513 25.079 13.579C24.8219 13.4987 24.5769 13.4023 24.3439 13.2898V11.5906C24.7536 11.7674 25.1754 11.9321 25.6092 12.0847C26.0511 12.2293 26.4889 12.3016 26.9228 12.3016C27.22 12.3016 27.457 12.2615 27.6338 12.1811C27.8186 12.1008 27.9511 11.9923 28.0315 11.8558C28.1198 11.7192 28.164 11.5625 28.164 11.3858C28.164 11.1689 28.0877 10.9841 27.9351 10.8314C27.7904 10.6788 27.5936 10.5382 27.3446 10.4097C27.0955 10.2731 26.8103 10.1285 26.4889 9.97583C26.2881 9.87942 26.0712 9.76695 25.8382 9.6384C25.6052 9.50183 25.3803 9.33713 25.1634 9.14432C24.9545 8.94347 24.7817 8.70245 24.6452 8.42126C24.5086 8.14008 24.4403 7.80265 24.4403 7.40899C24.4403 6.89482 24.5568 6.45697 24.7898 6.09544C25.0308 5.72588 25.3682 5.44469 25.802 5.25188C26.2439 5.05907 26.7621 4.96266 27.3566 4.96266C27.8065 4.96266 28.2323 5.01488 28.634 5.11932C29.0437 5.22376 29.4695 5.37239 29.9114 5.5652L29.3209 6.98721C28.9272 6.82653 28.5738 6.702 28.2604 6.61363C27.9471 6.52526 27.6257 6.48107 27.2964 6.48107C27.0714 6.48107 26.8786 6.51722 26.7179 6.58953C26.5572 6.66183 26.4327 6.76226 26.3443 6.8908C26.264 7.01934 26.2238 7.17199 26.2238 7.34873C26.2238 7.54958 26.2841 7.72231 26.4046 7.86692C26.5251 8.0035 26.7059 8.13606 26.9469 8.2646C27.1879 8.39314 27.4892 8.54579 27.8507 8.72253C28.2926 8.93142 28.6661 9.14833 28.9714 9.37328C29.2848 9.59823 29.5258 9.86335 29.6945 10.1686C29.8632 10.4739 29.9476 10.8515 29.9476 11.3014ZM34.1868 5.08317C34.9501 5.08317 35.5887 5.15547 36.1029 5.30008C36.6251 5.43666 37.0148 5.66563 37.2719 5.98698C37.537 6.30031 37.6695 6.7261 37.6695 7.26438C37.6695 7.58573 37.6173 7.87897 37.5129 8.14409C37.4084 8.40921 37.2558 8.62613 37.0549 8.79484C36.8621 8.96355 36.6251 9.07201 36.3439 9.12021V9.18047C36.6332 9.23671 36.8943 9.33713 37.1272 9.48174C37.3602 9.62635 37.545 9.83523 37.6816 10.1084C37.8182 10.3815 37.8865 10.7431 37.8865 11.193C37.8865 11.7152 37.7579 12.1651 37.5008 12.5427C37.2518 12.9122 36.8902 13.1974 36.4162 13.3983C35.9422 13.5911 35.3799 13.6875 34.7291 13.6875H31.5115V5.08317H34.1868ZM34.3917 8.49357C34.9219 8.49357 35.2875 8.40921 35.4883 8.2405C35.6972 8.07179 35.8016 7.82675 35.8016 7.5054C35.8016 7.176 35.6811 6.939 35.4401 6.79439C35.1991 6.64978 34.8175 6.57748 34.2953 6.57748H33.3312V8.49357H34.3917ZM33.3312 9.93967V12.1811H34.5243C35.0706 12.1811 35.4522 12.0767 35.6691 11.8678C35.886 11.6509 35.9945 11.3657 35.9945 11.0122C35.9945 10.7953 35.9463 10.6065 35.8499 10.4458C35.7615 10.2851 35.6048 10.1606 35.3799 10.0722C35.1549 9.98386 34.8496 9.93967 34.464 9.93967H33.3312ZM42.4161 13.6875H41.3315V6.03519H38.6441V5.08317H45.0914V6.03519H42.4161V13.6875ZM48.6567 7.10772C48.7772 7.10772 48.9058 7.11575 49.0424 7.13182C49.187 7.13985 49.3115 7.15592 49.4159 7.18002L49.2834 8.15614C49.1789 8.13204 49.0625 8.11196 48.9339 8.09589C48.8134 8.07982 48.6969 8.07179 48.5844 8.07179C48.3354 8.07179 48.0984 8.12401 47.8734 8.22845C47.6485 8.33289 47.4476 8.48152 47.2709 8.67433C47.0941 8.85911 46.9535 9.08406 46.8491 9.34918C46.7527 9.6143 46.7045 9.91156 46.7045 10.2409V13.6875H45.644V7.22823H46.5117L46.6322 8.40921H46.6804C46.817 8.16819 46.9817 7.95128 47.1745 7.75846C47.3673 7.55762 47.5882 7.40095 47.8373 7.28848C48.0863 7.16797 48.3595 7.10772 48.6567 7.10772ZM27.2602 23.1198C28.0475 23.1198 28.63 23.2925 29.0076 23.638C29.3852 23.9834 29.574 24.5337 29.574 25.2889V29.6875H28.8027L28.5979 28.7716H28.5497C28.3649 29.0046 28.1721 29.2014 27.9712 29.3621C27.7784 29.5148 27.5534 29.6272 27.2964 29.6996C27.0473 29.7719 26.742 29.808 26.3805 29.808C25.9949 29.808 25.6454 29.7397 25.3321 29.6031C25.0268 29.4666 24.7858 29.2577 24.609 28.9765C24.4323 28.6873 24.3439 28.3257 24.3439 27.8919C24.3439 27.2492 24.597 26.7551 25.1031 26.4097C25.6092 26.0562 26.3885 25.8634 27.441 25.8312L28.5376 25.7951V25.4094C28.5376 24.8712 28.4211 24.4976 28.1881 24.2887C27.9551 24.0798 27.6257 23.9754 27.2 23.9754C26.8625 23.9754 26.5412 24.0276 26.2359 24.132C25.9306 24.2284 25.6454 24.3409 25.3803 24.4695L25.0549 23.6741C25.3361 23.5215 25.6695 23.3929 26.0551 23.2885C26.4407 23.176 26.8424 23.1198 27.2602 23.1198ZM27.5735 26.5663C26.7701 26.5985 26.2118 26.727 25.8985 26.9519C25.5932 27.1769 25.4405 27.4942 25.4405 27.904C25.4405 28.2655 25.549 28.5306 25.7659 28.6993C25.9908 28.868 26.2761 28.9524 26.6215 28.9524C27.1678 28.9524 27.6217 28.8038 27.9833 28.5065C28.3448 28.2012 28.5255 27.7353 28.5255 27.1086V26.5302L27.5735 26.5663ZM33.8586 29.808C33.0552 29.808 32.4125 29.5308 31.9305 28.9765C31.4485 28.4141 31.2074 27.5786 31.2074 26.4699C31.2074 25.3612 31.4485 24.5257 31.9305 23.9633C32.4206 23.3929 33.0673 23.1077 33.8707 23.1077C34.2081 23.1077 34.5013 23.1519 34.7504 23.2403C34.9994 23.3206 35.2164 23.4331 35.4011 23.5777C35.5859 23.7223 35.7426 23.883 35.8711 24.0597H35.9434C35.9354 23.9553 35.9193 23.8027 35.8952 23.6018C35.8792 23.3929 35.8711 23.2282 35.8711 23.1077V20.5288H36.9316V29.6875H36.076L35.9193 28.8198H35.8711C35.7426 29.0046 35.5859 29.1733 35.4011 29.326C35.2164 29.4706 34.9954 29.5871 34.7383 29.6754C34.4893 29.7638 34.1961 29.808 33.8586 29.808ZM34.0273 28.9283C34.7102 28.9283 35.1882 28.7435 35.4614 28.374C35.7426 27.9964 35.8832 27.43 35.8832 26.6748V26.482C35.8832 25.6786 35.7506 25.064 35.4855 24.6382C35.2204 24.2043 34.7303 23.9874 34.0153 23.9874C33.4449 23.9874 33.0151 24.2164 32.7258 24.6743C32.4447 25.1242 32.3041 25.7308 32.3041 26.494C32.3041 27.2653 32.4447 27.8638 32.7258 28.2896C33.0151 28.7154 33.4489 28.9283 34.0273 28.9283ZM41.4776 23.1077C42.032 23.1077 42.506 23.2282 42.8996 23.4692C43.3013 23.7103 43.6066 24.0517 43.8155 24.4936C44.0324 24.9274 44.1409 25.4376 44.1409 26.024V26.6627H39.7182C39.7343 27.3938 39.919 27.9522 40.2725 28.3378C40.6341 28.7154 41.1362 28.9042 41.7789 28.9042C42.1886 28.9042 42.5501 28.868 42.8635 28.7957C43.1848 28.7154 43.5142 28.6029 43.8516 28.4583V29.3862C43.5222 29.5308 43.1969 29.6353 42.8755 29.6996C42.5542 29.7719 42.1725 29.808 41.7307 29.808C41.1201 29.808 40.5778 29.6835 40.1038 29.4344C39.6378 29.1854 39.2723 28.8158 39.0072 28.3257C38.7501 27.8276 38.6216 27.2211 38.6216 26.5061C38.6216 25.7991 38.738 25.1925 38.971 24.6864C39.212 24.1802 39.5455 23.7906 39.9713 23.5174C40.4051 23.2443 40.9072 23.1077 41.4776 23.1077ZM41.4656 23.9754C40.9594 23.9754 40.5577 24.1401 40.2605 24.4695C39.9713 24.7908 39.7985 25.2407 39.7423 25.8192H43.0322C43.0322 25.4496 42.9759 25.1282 42.8635 24.8551C42.751 24.5819 42.5783 24.369 42.3453 24.2164C42.1203 24.0557 41.8271 23.9754 41.4656 23.9754Z" fill="white"/>
<path d="M27.9179 26.834H26.7676V18.7179H23.9174V17.7082H30.7553V18.7179H27.9179V26.834ZM39.7874 26.834H34.6877V17.7082H39.7874V18.7179H35.838V21.5681H39.5573V22.565H35.838V25.8243H39.7874V26.834ZM51.0178 26.834H49.663L46.4293 22.4756L45.4963 23.2936V26.834H44.346V17.7082H45.4963V22.2072C45.7519 21.9175 46.0118 21.6278 46.2759 21.3381C46.5401 21.0483 46.8042 20.7586 47.0684 20.4689L49.5352 17.7082H50.8772L47.2601 21.6831L51.0178 26.834Z" fill="#58BD7D"/>
</g>
<defs>
<clipPath id="clip0_2053_1161">
<rect y="0.139648" width="70.5" height="27.9208" rx="1.39604" fill="white"/>
</clipPath>
</defs>
</svg>
