<svg width="140" height="57" viewBox="0 0 140 57" fill="none" xmlns="http://www.w3.org/2000/svg">
<g clip-path="url(#clip0_2104_1900)">
<path d="M18.956 52.7221H1.80534L0 56.0318H18.956C24.9738 56.0318 32.1952 55.731 37.9121 47.9078L35.8059 44.8989C30.3899 53.0229 21.0623 52.7221 18.956 52.7221Z" fill="#D8D8D8"/>
<path d="M37.9119 47.9078C38.8747 45.9821 38.5137 43.0935 38.2128 41.89L36.7083 40.9873C37.1898 42.1909 36.3071 44.0965 35.8057 44.8989L37.9119 47.9078Z" fill="#7D7D7D"/>
<path d="M30.6904 40.0845C31.2922 38.8809 31.2922 38.0785 31.2922 37.3765L34.3011 37.9782C34.7825 39.6632 34.3011 41.1877 33.6993 41.8898L30.6904 40.0845Z" fill="#7D7D7D"/>
<path d="M22.2656 46.4032H5.11491L3.30957 49.7129H22.2656C28.2834 49.7129 32.4959 43.996 33.6994 41.8898L30.6905 40.0845C28.5241 44.4173 24.3718 46.4032 22.2656 46.4032Z" fill="#D8D8D8"/>
<path d="M27.3812 40.7843C28.3441 39.5807 28.5848 37.8757 28.5848 37.1736C27.4815 36.8727 25.3352 36.4515 25.5759 37.1736C25.8166 37.8958 23.4697 39.8816 22.2661 40.7843H27.3812Z" fill="#7D7D7D"/>
<path d="M6.61963 43.6955L8.42497 40.3857H27.652C26.4484 43.0336 23.7703 43.6955 22.5668 43.6955H6.61963Z" fill="#D8D8D8"/>
<path d="M18.0532 0.367188H40.319L38.8145 3.67697H18.0532C9.38754 3.67697 5.4158 11.0989 4.51313 14.8099L3.30957 11.1992C4.99455 3.01502 13.5398 0.367188 18.0532 0.367188Z" fill="#58BD7D"/>
<path d="M35.5049 9.99571L37.0094 6.98682H17.4515C10.5311 7.28771 7.3216 14.2082 6.92041 17.2171C7.40183 18.4206 9.12693 18.9221 9.92931 19.0224C9.92931 13.2453 15.6462 9.99571 18.6551 9.99571H35.5049Z" fill="#58BD7D"/>
<path d="M33.3984 13.3057L31.593 16.3146H19.5575C16.5486 16.3146 16.1474 18.5211 16.2477 19.6243H13.2388C13.2388 15.2915 16.5486 13.3057 18.6548 13.3057H33.3984Z" fill="#58BD7D"/>
<path d="M4.51314 22.0312C0.902378 17.217 1.80508 14.509 2.10589 13.9072C3.5502 20.1657 8.92617 21.9309 11.4336 22.0312H32.4958C37.6109 22.0312 40.9207 29.8544 40.319 31.6597C39.1154 28.3499 33.7997 25.0401 31.5932 25.0401H9.92911C8.12368 25.0401 6.0175 24.037 4.51314 22.0312Z" fill="#58BD7D"/>
<path d="M3.6105 28.0491C-0.000252485 23.2349 0.601656 19.6242 0.902465 19.0225C2.34677 25.281 8.02358 27.648 10.531 27.7483L31.9163 28.0491C37.0313 28.0491 41.2215 35.5714 40.0179 39.483C37.3099 33.7661 33.4986 31.3589 31.2921 31.3589L9.34954 31.058C7.54412 31.058 5.11487 30.0549 3.6105 28.0491Z" fill="#58BD7D"/>
<path d="M3.6106 34.3677C-0.300979 29.1527 0.601594 28.9517 0.902493 27.4473C2.40694 32.2615 8.02347 33.9665 10.5308 34.0668L31.9162 34.3677C37.0312 34.3677 39.4163 42.1909 38.5137 46.1024C36.7083 40.6864 33.0977 37.6775 31.292 37.6775L9.34943 37.3766C7.52216 37.3766 5.77049 37.2474 3.6106 34.3677Z" fill="#58BD7D"/>
<path d="M60.0648 22.6801C60.0648 23.6953 59.8151 24.5815 59.3155 25.3388C58.816 26.0962 58.0909 26.6843 57.1402 27.1033C56.2056 27.5061 55.0616 27.7075 53.7081 27.7075C53.1119 27.7075 52.5237 27.6672 51.9436 27.5867C51.3797 27.5061 50.8318 27.3933 50.3001 27.2483C49.7844 27.0872 49.293 26.8938 48.8257 26.6682V23.2602C49.6475 23.6147 50.4934 23.945 51.3636 24.2512C52.2498 24.5412 53.128 24.6863 53.9981 24.6863C54.5943 24.6863 55.0696 24.6057 55.4241 24.4446C55.7948 24.2834 56.0606 24.0659 56.2218 23.792C56.399 23.518 56.4876 23.2038 56.4876 22.8493C56.4876 22.4143 56.3346 22.0437 56.0284 21.7375C55.7384 21.4313 55.3436 21.1494 54.8441 20.8915C54.3445 20.6176 53.7725 20.3276 53.128 20.0214C52.7251 19.8281 52.2901 19.6025 51.8228 19.3447C51.3555 19.0707 50.9043 18.7404 50.4693 18.3537C50.0503 17.9508 49.7039 17.4674 49.4299 16.9035C49.156 16.3395 49.0191 15.6627 49.0191 14.8732C49.0191 13.8419 49.2527 12.9637 49.72 12.2386C50.2034 11.4974 50.8802 10.9334 51.7503 10.5467C52.6365 10.16 53.6758 9.96663 54.8682 9.96663C55.7706 9.96663 56.6246 10.0714 57.4303 10.2808C58.2521 10.4903 59.1061 10.7884 59.9923 11.1751L58.808 14.0272C58.0184 13.705 57.3094 13.4552 56.681 13.2779C56.0526 13.1007 55.408 13.0121 54.7474 13.0121C54.2962 13.0121 53.9095 13.0846 53.5872 13.2296C53.2649 13.3746 53.0152 13.576 52.8379 13.8339C52.6768 14.0917 52.5962 14.3978 52.5962 14.7523C52.5962 15.1552 52.7171 15.5016 52.9588 15.7916C53.2005 16.0656 53.563 16.3314 54.0464 16.5893C54.5298 16.8471 55.1341 17.1532 55.8592 17.5077C56.7454 17.9267 57.4947 18.3617 58.107 18.8129C58.7355 19.2641 59.2189 19.7958 59.5572 20.4081C59.8956 21.0204 60.0648 21.7778 60.0648 22.6801ZM68.5674 10.2083C70.0982 10.2083 71.3792 10.3534 72.4105 10.6434C73.4578 10.9173 74.2393 11.3766 74.755 12.0211C75.2867 12.6495 75.5526 13.5035 75.5526 14.5831C75.5526 15.2277 75.4479 15.8158 75.2384 16.3476C75.0289 16.8793 74.7227 17.3144 74.3199 17.6527C73.9332 17.9911 73.4578 18.2087 72.8939 18.3053V18.4262C73.474 18.539 73.9976 18.7404 74.4649 19.0304C74.9322 19.3205 75.3028 19.7394 75.5768 20.2873C75.8507 20.8351 75.9877 21.5602 75.9877 22.4626C75.9877 23.51 75.7298 24.4123 75.2142 25.1697C74.7147 25.9109 73.9896 26.4829 73.0389 26.8857C72.0882 27.2725 70.9603 27.4658 69.6551 27.4658H63.2016V10.2083H68.5674ZM68.9783 17.0485C70.0418 17.0485 70.775 16.8793 71.1778 16.5409C71.5967 16.2025 71.8062 15.7111 71.8062 15.0665C71.8062 14.4059 71.5645 13.9305 71.0811 13.6405C70.5977 13.3505 69.8323 13.2054 68.7849 13.2054H66.8513V17.0485H68.9783ZM66.8513 19.9489V24.4446H69.2442C70.3399 24.4446 71.1053 24.2351 71.5403 23.8161C71.9754 23.3811 72.1929 22.809 72.1929 22.1C72.1929 21.665 72.0963 21.2863 71.9029 20.9641C71.7256 20.6418 71.4114 20.392 70.9603 20.2148C70.5091 20.0375 69.8968 19.9489 69.1233 19.9489H66.8513ZM85.0726 27.4658H82.8973V12.1178H77.5073V10.2083H90.4384V12.1178H85.0726V27.4658ZM97.5893 14.2689C97.831 14.2689 98.0889 14.285 98.3628 14.3173C98.6528 14.3334 98.9026 14.3656 99.1121 14.4139L98.8462 16.3717C98.6367 16.3234 98.4031 16.2831 98.1453 16.2509C97.9036 16.2186 97.6699 16.2025 97.4443 16.2025C96.9448 16.2025 96.4695 16.3073 96.0183 16.5167C95.5671 16.7262 95.1643 17.0243 94.8098 17.411C94.4553 17.7816 94.1733 18.2328 93.9638 18.7646C93.7705 19.2963 93.6738 19.8925 93.6738 20.5532V27.4658H91.5468V14.5106H93.2871L93.5288 16.8793H93.6254C93.8994 16.3959 94.2297 15.9608 94.6164 15.5741C95.0031 15.1713 95.4463 14.8571 95.9458 14.6315C96.4453 14.3898 96.9931 14.2689 97.5893 14.2689ZM54.6749 47.2931C56.254 47.2931 57.4222 47.6395 58.1795 48.3324C58.9369 49.0253 59.3155 50.1291 59.3155 51.6437V60.4658H57.7686L57.3578 58.6289H57.2611C56.8905 59.0962 56.5037 59.491 56.1009 59.8132C55.7142 60.1194 55.263 60.345 54.7474 60.49C54.2479 60.635 53.6356 60.7075 52.9104 60.7075C52.137 60.7075 51.4361 60.5706 50.8076 60.2966C50.1953 60.0227 49.7119 59.6038 49.3574 59.0398C49.0029 58.4597 48.8257 57.7346 48.8257 56.8645C48.8257 55.5754 49.3333 54.5844 50.3484 53.8915C51.3636 53.1825 52.9266 52.7958 55.0374 52.7314L57.2369 52.6589V51.8854C57.2369 50.8058 57.0033 50.0565 56.536 49.6376C56.0687 49.2186 55.408 49.0092 54.554 49.0092C53.8773 49.0092 53.2327 49.1139 52.6204 49.3234C52.0081 49.5167 51.4361 49.7423 50.9043 50.0001L50.2517 48.4049C50.8157 48.0988 51.4844 47.8409 52.2579 47.6315C53.0313 47.4059 53.837 47.2931 54.6749 47.2931ZM55.3033 54.2058C53.692 54.2702 52.5721 54.528 51.9436 54.9792C51.3313 55.4304 51.0252 56.0669 51.0252 56.8886C51.0252 57.6137 51.2427 58.1455 51.6778 58.4839C52.1289 58.8223 52.701 58.9914 53.3939 58.9914C54.4896 58.9914 55.4 58.6933 56.1251 58.0971C56.8502 57.4848 57.2127 56.5503 57.2127 55.2934V54.1332L55.3033 54.2058ZM67.9092 60.7075C66.2978 60.7075 65.0087 60.1516 64.0419 59.0398C63.0751 57.9118 62.5917 56.236 62.5917 54.0124C62.5917 51.7887 63.0751 50.1129 64.0419 48.985C65.0249 47.8409 66.322 47.2689 67.9333 47.2689C68.6101 47.2689 69.1982 47.3575 69.6977 47.5348C70.1973 47.6959 70.6323 47.9215 71.0029 48.2116C71.3735 48.5016 71.6878 48.8239 71.9456 49.1784H72.0906C72.0745 48.9689 72.0423 48.6627 71.9939 48.2599C71.9617 47.8409 71.9456 47.5106 71.9456 47.2689V42.0965H74.0725V60.4658H72.3565L72.0423 58.7256H71.9456C71.6878 59.0962 71.3735 59.4346 71.0029 59.7407C70.6323 60.0308 70.1892 60.2644 69.6736 60.4417C69.1741 60.6189 68.5859 60.7075 67.9092 60.7075ZM68.2475 58.9431C69.6172 58.9431 70.5759 58.5725 71.1238 57.8313C71.6878 57.0739 71.9697 55.9379 71.9697 54.4233V54.0366C71.9697 52.4252 71.7039 51.1925 71.1721 50.3385C70.6404 49.4684 69.6575 49.0333 68.2234 49.0333C67.0793 49.0333 66.2172 49.4926 65.6372 50.411C65.0732 51.3134 64.7912 52.53 64.7912 54.0607C64.7912 55.6076 65.0732 56.8081 65.6372 57.6621C66.2172 58.5161 67.0874 58.9431 68.2475 58.9431ZM83.1904 47.2689C84.3022 47.2689 85.2529 47.5106 86.0424 47.994C86.8481 48.4774 87.4604 49.1622 87.8794 50.0485C88.3144 50.9186 88.532 51.9418 88.532 53.1181V54.3991H79.6615C79.6937 55.8654 80.0643 56.9853 80.7733 57.7588C81.4984 58.5161 82.5055 58.8948 83.7946 58.8948C84.6164 58.8948 85.3415 58.8223 85.9699 58.6772C86.6145 58.5161 87.2751 58.2905 87.9519 58.0005V59.8616C87.2912 60.1516 86.6386 60.3611 85.9941 60.49C85.3496 60.635 84.5842 60.7075 83.6979 60.7075C82.4733 60.7075 81.3856 60.4578 80.435 59.9582C79.5004 59.4587 78.7672 58.7175 78.2355 57.7346C77.7198 56.7356 77.462 55.519 77.462 54.0849C77.462 52.6669 77.6957 51.4504 78.163 50.4352C78.6464 49.4201 79.3151 48.6386 80.1691 48.0907C81.0392 47.5428 82.0463 47.2689 83.1904 47.2689ZM83.1662 49.0092C82.151 49.0092 81.3454 49.3395 80.7492 50.0001C80.1691 50.6447 79.8226 51.547 79.7099 52.7072H86.3083C86.3083 51.966 86.1955 51.3214 85.9699 50.7736C85.7443 50.2257 85.3979 49.7987 84.9306 49.4926C84.4794 49.1703 83.8913 49.0092 83.1662 49.0092Z" fill="white"/>
<path d="M55.994 54.833H53.6868V38.5548H47.9702V36.5296H61.6849V38.5548H55.994V54.833ZM79.8003 54.833H69.5719V36.5296H79.8003V38.5548H71.8791V44.2714H79.3388V46.2709H71.8791V52.8078H79.8003V54.833ZM102.325 54.833H99.6075L93.1219 46.0915L91.2505 47.7321V54.833H88.9434V36.5296H91.2505V45.5531C91.7632 44.9721 92.2845 44.391 92.8142 43.81C93.344 43.2289 93.8738 42.6478 94.4036 42.0668L99.3512 36.5296H102.043L94.7881 44.5021L102.325 54.833Z" fill="#58BD7D"/>
</g>
<defs>
<clipPath id="clip0_2104_1900">
<rect y="0.367188" width="140" height="56" rx="2.8" fill="white"/>
</clipPath>
</defs>
</svg>
