<svg width="61" height="61" viewBox="0 0 61 61" fill="none" xmlns="http://www.w3.org/2000/svg">
<path d="M35.9982 0.666751C41.4892 0.66413 46.8152 2.54412 51.0878 5.99318C55.3604 9.44224 58.3214 14.2519 59.4769 19.6199C60.6324 24.988 59.9127 30.5899 57.4376 35.4915C54.9626 40.393 50.8819 44.2979 45.8762 46.5548C44.2761 50.0923 41.842 53.1888 38.7824 55.5789C35.7228 57.969 32.1291 59.5813 28.3096 60.2776C24.4901 60.9738 20.5587 60.7333 16.8525 59.5765C13.1464 58.4197 9.77615 56.3812 7.03083 53.6359C4.28551 50.8906 2.24705 47.5203 1.09026 43.8142C-0.0665187 40.1081 -0.307098 36.1767 0.389159 32.3571C1.08542 28.5376 2.69773 24.9439 5.08783 21.8844C7.47792 18.8248 10.5745 16.3906 14.1119 14.7906C16.0147 10.5804 19.0917 7.00851 22.9737 4.50333C26.8557 1.99815 31.378 0.666037 35.9982 0.666751ZM23.9959 18.6703C21.6316 18.6703 19.2905 19.136 17.1062 20.0408C14.9219 20.9455 12.9372 22.2717 11.2654 23.9434C9.59363 25.6152 8.2675 27.5999 7.36273 29.7842C6.45797 31.9685 5.99229 34.3096 5.99229 36.6739C5.99229 39.0382 6.45797 41.3793 7.36273 43.5636C8.2675 45.7479 9.59363 47.7325 11.2654 49.4043C12.9372 51.0761 14.9219 52.4023 17.1062 53.307C19.2905 54.2118 21.6316 54.6775 23.9959 54.6775C28.7707 54.6775 33.35 52.7807 36.7263 49.4043C40.1026 46.028 41.9994 41.4487 41.9994 36.6739C41.9994 31.899 40.1026 27.3198 36.7263 23.9434C33.35 20.5671 28.7707 18.6703 23.9959 18.6703ZM26.9965 21.6709V24.6715H32.9976V30.6727H20.9953C20.6204 30.672 20.2588 30.8117 19.9817 31.0643C19.7047 31.3169 19.5322 31.6641 19.4983 32.0374C19.4645 32.4108 19.5716 32.7833 19.7987 33.0817C20.0258 33.38 20.3563 33.5825 20.7252 33.6493L20.9953 33.6733H26.9965C28.986 33.6733 30.894 34.4636 32.3008 35.8704C33.7076 37.2772 34.4979 39.1853 34.4979 41.1748C34.4979 43.1643 33.7076 45.0723 32.3008 46.4791C30.894 47.8859 28.986 48.6763 26.9965 48.6763V51.6769H20.9953V48.6763H14.9941V42.6751H26.9965C27.3714 42.6758 27.733 42.5361 28.01 42.2835C28.2871 42.0309 28.4595 41.6837 28.4934 41.3103C28.5273 40.937 28.4201 40.5644 28.193 40.2661C27.966 39.9678 27.6354 39.7653 27.2665 39.6985L26.9965 39.6745H20.9953C19.0057 39.6745 17.0977 38.8842 15.6909 37.4773C14.2841 36.0705 13.4938 34.1625 13.4938 32.173C13.4938 30.1835 14.2841 28.2754 15.6909 26.8686C17.0977 25.4618 19.0057 24.6715 20.9953 24.6715V21.6709H26.9965ZM35.9982 6.66794C33.4558 6.66496 30.9417 7.20187 28.6222 8.24313C26.3028 9.2844 24.2309 10.8063 22.5436 12.7081C25.935 12.5023 29.3316 13.0187 32.5086 14.2233C35.6856 15.4279 38.5707 17.2932 40.9731 19.6959C43.3755 22.0985 45.2404 24.9839 46.4446 28.161C47.6489 31.3381 48.1649 34.7347 47.9586 38.1262C50.6868 35.7006 52.6131 32.5029 53.4822 28.9573C54.3512 25.4117 54.1218 21.6857 52.8245 18.2734C51.5271 14.8611 49.2231 11.9239 46.2181 9.85122C43.213 7.77854 39.6488 6.66836 35.9982 6.66794Z" fill="#09121F"/>
</svg>
