<svg width="60" height="61" viewBox="0 0 60 61" fill="none" xmlns="http://www.w3.org/2000/svg">
<path d="M21.22 26.2734C24.3478 31.7683 28.8984 36.319 34.3933 39.4467L37.34 35.3201C37.8139 34.6565 38.5145 34.1897 39.3093 34.0079C40.1042 33.826 40.9381 33.9419 41.6533 34.3334C46.3677 36.9098 51.574 38.4593 56.93 38.8801C57.7659 38.9463 58.5462 39.3252 59.1152 39.9411C59.6842 40.5571 60.0001 41.3649 60 42.2034V57.0767C60.0002 57.9021 59.6942 58.6981 59.1412 59.3108C58.5883 59.9235 57.8277 60.3092 57.0067 60.3934C55.24 60.5767 53.46 60.6667 51.6667 60.6667C23.1333 60.6667 0 37.5334 0 9.00008C0 7.20675 0.0900001 5.42675 0.273333 3.66008C0.357515 2.83907 0.743281 2.07848 1.35597 1.52553C1.96865 0.972572 2.76469 0.66657 3.59 0.666748H18.4633C19.3019 0.666643 20.1097 0.982586 20.7256 1.55158C21.3416 2.12058 21.7204 2.90083 21.7867 3.73675C22.2074 9.09272 23.7569 14.299 26.3333 19.0134C26.7249 19.7286 26.8407 20.5625 26.6589 21.3574C26.4771 22.1522 26.0102 22.8529 25.3467 23.3267L21.22 26.2734ZM12.8133 24.0834L19.1467 19.5601C17.3493 15.6804 16.1178 11.5629 15.49 7.33341H6.7C6.68 7.88675 6.67 8.44341 6.67 9.00008C6.66667 33.8534 26.8133 54.0001 51.6667 54.0001C52.2233 54.0001 52.78 53.9901 53.3333 53.9667V45.1768C49.1039 44.5489 44.9864 43.3175 41.1067 41.5201L36.5833 47.8534C34.7622 47.1458 32.9934 46.3104 31.29 45.3534C31.29 45.3534 37.6347 48.9643 31.0967 45.2434C24.5586 41.5225 19.1443 36.1082 15.4233 29.5701L15.3133 29.3767C14.3564 27.6734 13.5209 25.9045 12.8133 24.0834Z" fill="#211919"/>
</svg>
